<svg id="visual" viewBox="0 0 900 600" width="900" height="600" xmlns="http://www.w3.org/2000/svg" xmlns:xlink="http://www.w3.org/1999/xlink" version="1.1"><path d="M0 163L21.5 175C43 187 86 211 128.8 201C171.7 191 214.3 147 257.2 156C300 165 343 227 385.8 244C428.7 261 471.3 233 514.2 211C557 189 600 173 642.8 157C685.7 141 728.3 125 771.2 137C814 149 857 189 878.5 209L900 229L900 0L878.5 0C857 0 814 0 771.2 0C728.3 0 685.7 0 642.8 0C600 0 557 0 514.2 0C471.3 0 428.7 0 385.8 0C343 0 300 0 257.2 0C214.3 0 171.7 0 128.8 0C86 0 43 0 21.5 0L0 0Z" fill="#efeccb"></path><path d="M0 277L21.5 309C43 341 86 405 128.8 421C171.7 437 214.3 405 257.2 398C300 391 343 409 385.8 406C428.7 403 471.3 379 514.2 372C557 365 600 375 642.8 386C685.7 397 728.3 409 771.2 416C814 423 857 425 878.5 426L900 427L900 227L878.5 207C857 187 814 147 771.2 135C728.3 123 685.7 139 642.8 155C600 171 557 187 514.2 209C471.3 231 428.7 259 385.8 242C343 225 300 163 257.2 154C214.3 145 171.7 189 128.8 199C86 209 43 185 21.5 173L0 161Z" fill="#fcfcf6"></path><path d="M0 427L21.5 449C43 471 86 515 128.8 533C171.7 551 214.3 543 257.2 532C300 521 343 507 385.8 490C428.7 473 471.3 453 514.2 445C557 437 600 441 642.8 455C685.7 469 728.3 493 771.2 511C814 529 857 541 878.5 547L900 553L900 425L878.5 424C857 423 814 421 771.2 414C728.3 407 685.7 395 642.8 384C600 373 557 363 514.2 370C471.3 377 428.7 401 385.8 404C343 407 300 389 257.2 396C214.3 403 171.7 435 128.8 419C86 403 43 339 21.5 307L0 275Z" fill="#fcfcf6"></path><path d="M0 601L21.5 601C43 601 86 601 128.8 601C171.7 601 214.3 601 257.2 601C300 601 343 601 385.8 601C428.7 601 471.3 601 514.2 601C557 601 600 601 642.8 601C685.7 601 728.3 601 771.2 601C814 601 857 601 878.5 601L900 601L900 551L878.5 545C857 539 814 527 771.2 509C728.3 491 685.7 467 642.8 453C600 439 557 435 514.2 443C471.3 451 428.7 471 385.8 488C343 505 300 519 257.2 530C214.3 541 171.7 549 128.8 531C86 513 43 469 21.5 447L0 425Z" fill="#efeccb"></path></svg>